<mxfile host="Electron" modified="2023-08-01T13:21:40.890Z" agent="Mozilla/5.0 (Windows NT 10.0; Win64; x64) AppleWebKit/537.36 (KHTML, like Gecko) draw.io/21.6.5 Chrome/114.0.5735.243 Electron/25.3.1 Safari/537.36" etag="qsVltedRrUUjwotFPHZM" version="21.6.5" type="device">
  <diagram name="Page-1" id="fFV9P-hN0xn5McKn1nOy">
    <mxGraphModel dx="1446" dy="710" grid="1" gridSize="10" guides="1" tooltips="1" connect="1" arrows="1" fold="1" page="1" pageScale="1" pageWidth="4681" pageHeight="3300" math="0" shadow="0">
      <root>
        <mxCell id="0" />
        <mxCell id="1" parent="0" />
        <mxCell id="UwXpIZZd16UUz_VgwQnS-63" value="" style="html=1;whiteSpace=wrap;" parent="1" vertex="1">
          <mxGeometry x="240" y="94" width="520" height="1120" as="geometry" />
        </mxCell>
        <mxCell id="UwXpIZZd16UUz_VgwQnS-3" value="Verify User" style="ellipse;whiteSpace=wrap;html=1;" parent="1" vertex="1">
          <mxGeometry x="530" y="110" width="140" height="70" as="geometry" />
        </mxCell>
        <mxCell id="UwXpIZZd16UUz_VgwQnS-4" value="Admin Login" style="ellipse;whiteSpace=wrap;html=1;" parent="1" vertex="1">
          <mxGeometry x="520" y="190" width="140" height="70" as="geometry" />
        </mxCell>
        <mxCell id="UwXpIZZd16UUz_VgwQnS-5" value="Website Management" style="ellipse;whiteSpace=wrap;html=1;" parent="1" vertex="1">
          <mxGeometry x="520" y="270" width="140" height="70" as="geometry" />
        </mxCell>
        <mxCell id="UwXpIZZd16UUz_VgwQnS-6" value="Admin" style="shape=umlActor;verticalLabelPosition=bottom;verticalAlign=top;html=1;" parent="1" vertex="1">
          <mxGeometry x="850" y="180" width="30" height="60" as="geometry" />
        </mxCell>
        <mxCell id="UwXpIZZd16UUz_VgwQnS-8" value="" style="endArrow=none;html=1;rounded=0;entryX=0;entryY=0.3333333333333333;entryDx=0;entryDy=0;entryPerimeter=0;" parent="1" source="UwXpIZZd16UUz_VgwQnS-3" target="UwXpIZZd16UUz_VgwQnS-6" edge="1">
          <mxGeometry width="50" height="50" relative="1" as="geometry">
            <mxPoint x="510" y="330" as="sourcePoint" />
            <mxPoint x="560" y="280" as="targetPoint" />
          </mxGeometry>
        </mxCell>
        <mxCell id="UwXpIZZd16UUz_VgwQnS-9" value="" style="endArrow=none;html=1;rounded=0;entryX=0;entryY=0.3333333333333333;entryDx=0;entryDy=0;entryPerimeter=0;" parent="1" source="UwXpIZZd16UUz_VgwQnS-4" target="UwXpIZZd16UUz_VgwQnS-6" edge="1">
          <mxGeometry width="50" height="50" relative="1" as="geometry">
            <mxPoint x="640" y="200" as="sourcePoint" />
            <mxPoint x="861" y="271" as="targetPoint" />
          </mxGeometry>
        </mxCell>
        <mxCell id="UwXpIZZd16UUz_VgwQnS-10" value="" style="endArrow=none;html=1;rounded=0;entryX=0;entryY=0.3333333333333333;entryDx=0;entryDy=0;entryPerimeter=0;" parent="1" source="UwXpIZZd16UUz_VgwQnS-5" target="UwXpIZZd16UUz_VgwQnS-6" edge="1">
          <mxGeometry width="50" height="50" relative="1" as="geometry">
            <mxPoint x="649" y="154" as="sourcePoint" />
            <mxPoint x="870" y="225" as="targetPoint" />
          </mxGeometry>
        </mxCell>
        <mxCell id="UwXpIZZd16UUz_VgwQnS-11" value="Login" style="ellipse;whiteSpace=wrap;html=1;" parent="1" vertex="1">
          <mxGeometry x="440" y="420" width="140" height="70" as="geometry" />
        </mxCell>
        <mxCell id="UwXpIZZd16UUz_VgwQnS-15" value="Invalid Password" style="ellipse;whiteSpace=wrap;html=1;" parent="1" vertex="1">
          <mxGeometry x="340" y="160" width="140" height="70" as="geometry" />
        </mxCell>
        <mxCell id="UwXpIZZd16UUz_VgwQnS-24" value="" style="endArrow=block;dashed=1;html=1;dashPattern=1 3;strokeWidth=2;rounded=0;entryX=0.323;entryY=0.083;entryDx=0;entryDy=0;entryPerimeter=0;endFill=1;" parent="1" source="UwXpIZZd16UUz_VgwQnS-15" target="UwXpIZZd16UUz_VgwQnS-11" edge="1">
          <mxGeometry width="50" height="50" relative="1" as="geometry">
            <mxPoint x="270" y="400" as="sourcePoint" />
            <mxPoint x="560" y="280" as="targetPoint" />
          </mxGeometry>
        </mxCell>
        <mxCell id="UwXpIZZd16UUz_VgwQnS-25" value="&amp;lt;&amp;lt;extend&amp;gt;&amp;gt;" style="text;strokeColor=none;align=center;fillColor=none;html=1;verticalAlign=middle;whiteSpace=wrap;rounded=0;" parent="1" vertex="1">
          <mxGeometry x="350" y="240" width="80" height="30" as="geometry" />
        </mxCell>
        <mxCell id="UwXpIZZd16UUz_VgwQnS-26" value="Reset Password" style="ellipse;whiteSpace=wrap;html=1;" parent="1" vertex="1">
          <mxGeometry x="300" y="282" width="140" height="70" as="geometry" />
        </mxCell>
        <mxCell id="UwXpIZZd16UUz_VgwQnS-27" value="" style="endArrow=block;dashed=1;html=1;dashPattern=1 3;strokeWidth=2;rounded=0;endFill=1;" parent="1" source="UwXpIZZd16UUz_VgwQnS-11" target="UwXpIZZd16UUz_VgwQnS-26" edge="1">
          <mxGeometry width="50" height="50" relative="1" as="geometry">
            <mxPoint x="430" y="210" as="sourcePoint" />
            <mxPoint x="495" y="436" as="targetPoint" />
          </mxGeometry>
        </mxCell>
        <mxCell id="UwXpIZZd16UUz_VgwQnS-28" value="&amp;lt;&amp;lt;include&amp;gt;&amp;gt;" style="text;strokeColor=none;align=center;fillColor=none;html=1;verticalAlign=middle;whiteSpace=wrap;rounded=0;" parent="1" vertex="1">
          <mxGeometry x="380" y="390" width="60" height="30" as="geometry" />
        </mxCell>
        <mxCell id="UwXpIZZd16UUz_VgwQnS-29" value="RFITNESSUSER" style="shape=umlActor;verticalLabelPosition=bottom;verticalAlign=top;html=1;" parent="1" vertex="1">
          <mxGeometry x="153" y="430" width="30" height="60" as="geometry" />
        </mxCell>
        <mxCell id="UwXpIZZd16UUz_VgwQnS-30" value="" style="endArrow=none;html=1;rounded=0;exitX=1;exitY=0.3333333333333333;exitDx=0;exitDy=0;exitPerimeter=0;entryX=-0.003;entryY=0.447;entryDx=0;entryDy=0;entryPerimeter=0;" parent="1" source="UwXpIZZd16UUz_VgwQnS-29" target="UwXpIZZd16UUz_VgwQnS-11" edge="1">
          <mxGeometry width="50" height="50" relative="1" as="geometry">
            <mxPoint x="634" y="303" as="sourcePoint" />
            <mxPoint x="860" y="210" as="targetPoint" />
          </mxGeometry>
        </mxCell>
        <mxCell id="UwXpIZZd16UUz_VgwQnS-31" value="SPORTSUSER" style="shape=umlActor;verticalLabelPosition=bottom;verticalAlign=top;html=1;" parent="1" vertex="1">
          <mxGeometry x="850" y="582" width="30" height="60" as="geometry" />
        </mxCell>
        <mxCell id="UwXpIZZd16UUz_VgwQnS-32" value="" style="endArrow=none;html=1;rounded=0;exitX=0;exitY=0.3333333333333333;exitDx=0;exitDy=0;exitPerimeter=0;" parent="1" source="UwXpIZZd16UUz_VgwQnS-31" target="UwXpIZZd16UUz_VgwQnS-11" edge="1">
          <mxGeometry width="50" height="50" relative="1" as="geometry">
            <mxPoint x="100" y="460" as="sourcePoint" />
            <mxPoint x="450" y="461" as="targetPoint" />
          </mxGeometry>
        </mxCell>
        <mxCell id="UwXpIZZd16UUz_VgwQnS-33" value="PURCHASE MEMBERSHIP" style="ellipse;whiteSpace=wrap;html=1;" parent="1" vertex="1">
          <mxGeometry x="490" y="600" width="140" height="70" as="geometry" />
        </mxCell>
        <mxCell id="UwXpIZZd16UUz_VgwQnS-35" value="" style="endArrow=none;html=1;rounded=0;exitX=0;exitY=0.3333333333333333;exitDx=0;exitDy=0;exitPerimeter=0;entryX=1;entryY=0.5;entryDx=0;entryDy=0;" parent="1" source="UwXpIZZd16UUz_VgwQnS-31" target="UwXpIZZd16UUz_VgwQnS-33" edge="1">
          <mxGeometry width="50" height="50" relative="1" as="geometry">
            <mxPoint x="850" y="460" as="sourcePoint" />
            <mxPoint x="590" y="465" as="targetPoint" />
          </mxGeometry>
        </mxCell>
        <mxCell id="UwXpIZZd16UUz_VgwQnS-37" value="MANAGE BOOKINGS" style="ellipse;whiteSpace=wrap;html=1;" parent="1" vertex="1">
          <mxGeometry x="500" y="790" width="140" height="70" as="geometry" />
        </mxCell>
        <mxCell id="UwXpIZZd16UUz_VgwQnS-38" value="" style="endArrow=none;html=1;rounded=0;exitX=0;exitY=0.3333333333333333;exitDx=0;exitDy=0;exitPerimeter=0;entryX=1;entryY=0.5;entryDx=0;entryDy=0;" parent="1" source="Y__nK6oGiQVNWSvQ6aT9-4" target="UwXpIZZd16UUz_VgwQnS-37" edge="1">
          <mxGeometry width="50" height="50" relative="1" as="geometry">
            <mxPoint x="850" y="460" as="sourcePoint" />
            <mxPoint x="620" y="636" as="targetPoint" />
          </mxGeometry>
        </mxCell>
        <mxCell id="UwXpIZZd16UUz_VgwQnS-39" value="CREATE MEMBERSHIP PLANS" style="ellipse;whiteSpace=wrap;html=1;" parent="1" vertex="1">
          <mxGeometry x="500" y="886" width="140" height="70" as="geometry" />
        </mxCell>
        <mxCell id="UwXpIZZd16UUz_VgwQnS-40" value="" style="endArrow=none;html=1;rounded=0;entryX=0.952;entryY=0.28;entryDx=0;entryDy=0;entryPerimeter=0;" parent="1" target="UwXpIZZd16UUz_VgwQnS-39" edge="1">
          <mxGeometry width="50" height="50" relative="1" as="geometry">
            <mxPoint x="850" y="860" as="sourcePoint" />
            <mxPoint x="620" y="721" as="targetPoint" />
          </mxGeometry>
        </mxCell>
        <mxCell id="UwXpIZZd16UUz_VgwQnS-41" value="BOOK RESOURCES&lt;br&gt;AND FACILITY" style="ellipse;whiteSpace=wrap;html=1;" parent="1" vertex="1">
          <mxGeometry x="490" y="512" width="140" height="70" as="geometry" />
        </mxCell>
        <mxCell id="UwXpIZZd16UUz_VgwQnS-42" value="" style="endArrow=none;html=1;rounded=0;exitX=0;exitY=0.3333333333333333;exitDx=0;exitDy=0;exitPerimeter=0;entryX=1;entryY=0.5;entryDx=0;entryDy=0;" parent="1" source="UwXpIZZd16UUz_VgwQnS-31" target="UwXpIZZd16UUz_VgwQnS-41" edge="1">
          <mxGeometry width="50" height="50" relative="1" as="geometry">
            <mxPoint x="860" y="465" as="sourcePoint" />
            <mxPoint x="626" y="601" as="targetPoint" />
          </mxGeometry>
        </mxCell>
        <mxCell id="UwXpIZZd16UUz_VgwQnS-43" value="MANAGE PROFILE" style="ellipse;whiteSpace=wrap;html=1;" parent="1" vertex="1">
          <mxGeometry x="300" y="500" width="140" height="70" as="geometry" />
        </mxCell>
        <mxCell id="UwXpIZZd16UUz_VgwQnS-44" value="SELECT PLANS" style="ellipse;whiteSpace=wrap;html=1;" parent="1" vertex="1">
          <mxGeometry x="300" y="582" width="140" height="70" as="geometry" />
        </mxCell>
        <mxCell id="UwXpIZZd16UUz_VgwQnS-47" value="MANAGE MEMBERS" style="ellipse;whiteSpace=wrap;html=1;" parent="1" vertex="1">
          <mxGeometry x="510" y="1010" width="140" height="70" as="geometry" />
        </mxCell>
        <mxCell id="UwXpIZZd16UUz_VgwQnS-48" value="" style="endArrow=none;html=1;rounded=0;exitX=0;exitY=0.3333333333333333;exitDx=0;exitDy=0;exitPerimeter=0;entryX=0.972;entryY=0.318;entryDx=0;entryDy=0;entryPerimeter=0;" parent="1" source="Y__nK6oGiQVNWSvQ6aT9-4" target="UwXpIZZd16UUz_VgwQnS-47" edge="1">
          <mxGeometry width="50" height="50" relative="1" as="geometry">
            <mxPoint x="860" y="465" as="sourcePoint" />
            <mxPoint x="643" y="859" as="targetPoint" />
          </mxGeometry>
        </mxCell>
        <mxCell id="UwXpIZZd16UUz_VgwQnS-49" value="" style="endArrow=none;html=1;rounded=0;entryX=0;entryY=0.5;entryDx=0;entryDy=0;exitX=1;exitY=0.3333333333333333;exitDx=0;exitDy=0;exitPerimeter=0;" parent="1" source="UwXpIZZd16UUz_VgwQnS-29" target="UwXpIZZd16UUz_VgwQnS-43" edge="1">
          <mxGeometry width="50" height="50" relative="1" as="geometry">
            <mxPoint x="200" y="470" as="sourcePoint" />
            <mxPoint x="450" y="461" as="targetPoint" />
          </mxGeometry>
        </mxCell>
        <mxCell id="UwXpIZZd16UUz_VgwQnS-50" value="" style="endArrow=none;html=1;rounded=0;exitX=1;exitY=0.3333333333333333;exitDx=0;exitDy=0;exitPerimeter=0;entryX=0;entryY=0;entryDx=0;entryDy=0;" parent="1" source="UwXpIZZd16UUz_VgwQnS-29" target="UwXpIZZd16UUz_VgwQnS-44" edge="1">
          <mxGeometry width="50" height="50" relative="1" as="geometry">
            <mxPoint x="203" y="470" as="sourcePoint" />
            <mxPoint x="460" y="471" as="targetPoint" />
          </mxGeometry>
        </mxCell>
        <mxCell id="UwXpIZZd16UUz_VgwQnS-53" value="GET USER DETAILS&amp;nbsp;" style="ellipse;whiteSpace=wrap;html=1;" parent="1" vertex="1">
          <mxGeometry x="310" y="816" width="140" height="70" as="geometry" />
        </mxCell>
        <mxCell id="UwXpIZZd16UUz_VgwQnS-54" value="PROFILE MANAGMENT" style="ellipse;whiteSpace=wrap;html=1;" parent="1" vertex="1">
          <mxGeometry x="310" y="920" width="140" height="70" as="geometry" />
        </mxCell>
        <mxCell id="UwXpIZZd16UUz_VgwQnS-55" value="MANAGE USER PLANS" style="ellipse;whiteSpace=wrap;html=1;" parent="1" vertex="1">
          <mxGeometry x="320" y="1010" width="140" height="70" as="geometry" />
        </mxCell>
        <mxCell id="UwXpIZZd16UUz_VgwQnS-56" value="ASSIGN FACILITIES TO USER" style="ellipse;whiteSpace=wrap;html=1;" parent="1" vertex="1">
          <mxGeometry x="320" y="1090" width="140" height="70" as="geometry" />
        </mxCell>
        <mxCell id="UwXpIZZd16UUz_VgwQnS-57" value="RFITNESSTRAINER" style="shape=umlActor;verticalLabelPosition=bottom;verticalAlign=top;html=1;" parent="1" vertex="1">
          <mxGeometry x="153" y="940" width="30" height="60" as="geometry" />
        </mxCell>
        <mxCell id="UwXpIZZd16UUz_VgwQnS-58" value="" style="endArrow=none;html=1;rounded=0;exitX=0;exitY=0.5;exitDx=0;exitDy=0;entryX=0.972;entryY=0.318;entryDx=0;entryDy=0;entryPerimeter=0;" parent="1" source="UwXpIZZd16UUz_VgwQnS-53" edge="1">
          <mxGeometry width="50" height="50" relative="1" as="geometry">
            <mxPoint x="397" y="630" as="sourcePoint" />
            <mxPoint x="183" y="960" as="targetPoint" />
          </mxGeometry>
        </mxCell>
        <mxCell id="UwXpIZZd16UUz_VgwQnS-59" value="" style="endArrow=none;html=1;rounded=0;exitX=0;exitY=0.5;exitDx=0;exitDy=0;entryX=1;entryY=0.3333333333333333;entryDx=0;entryDy=0;entryPerimeter=0;" parent="1" source="UwXpIZZd16UUz_VgwQnS-54" target="UwXpIZZd16UUz_VgwQnS-57" edge="1">
          <mxGeometry width="50" height="50" relative="1" as="geometry">
            <mxPoint x="311" y="874" as="sourcePoint" />
            <mxPoint x="193" y="970" as="targetPoint" />
          </mxGeometry>
        </mxCell>
        <mxCell id="UwXpIZZd16UUz_VgwQnS-60" value="" style="endArrow=none;html=1;rounded=0;exitX=0;exitY=0.5;exitDx=0;exitDy=0;entryX=1;entryY=0.3333333333333333;entryDx=0;entryDy=0;entryPerimeter=0;" parent="1" source="UwXpIZZd16UUz_VgwQnS-55" target="UwXpIZZd16UUz_VgwQnS-57" edge="1">
          <mxGeometry width="50" height="50" relative="1" as="geometry">
            <mxPoint x="321" y="884" as="sourcePoint" />
            <mxPoint x="203" y="980" as="targetPoint" />
          </mxGeometry>
        </mxCell>
        <mxCell id="UwXpIZZd16UUz_VgwQnS-61" value="" style="endArrow=none;html=1;rounded=0;entryX=1;entryY=0.3333333333333333;entryDx=0;entryDy=0;entryPerimeter=0;exitX=0;exitY=0.5;exitDx=0;exitDy=0;" parent="1" source="UwXpIZZd16UUz_VgwQnS-56" target="UwXpIZZd16UUz_VgwQnS-57" edge="1">
          <mxGeometry width="50" height="50" relative="1" as="geometry">
            <mxPoint x="288" y="1080" as="sourcePoint" />
            <mxPoint x="140" y="1146" as="targetPoint" />
          </mxGeometry>
        </mxCell>
        <mxCell id="UwXpIZZd16UUz_VgwQnS-62" value="" style="endArrow=none;html=1;rounded=0;entryX=1;entryY=0.3333333333333333;entryDx=0;entryDy=0;entryPerimeter=0;exitX=0;exitY=1;exitDx=0;exitDy=0;" parent="1" source="UwXpIZZd16UUz_VgwQnS-11" target="UwXpIZZd16UUz_VgwQnS-57" edge="1">
          <mxGeometry width="50" height="50" relative="1" as="geometry">
            <mxPoint x="311" y="874" as="sourcePoint" />
            <mxPoint x="193" y="970" as="targetPoint" />
            <Array as="points">
              <mxPoint x="460" y="890" />
            </Array>
          </mxGeometry>
        </mxCell>
        <mxCell id="UwXpIZZd16UUz_VgwQnS-64" value="&lt;span style=&quot;font-size: 14px;&quot;&gt;SPORTSHUB&lt;/span&gt;" style="text;strokeColor=none;align=center;fillColor=none;html=1;verticalAlign=middle;whiteSpace=wrap;rounded=0;" parent="1" vertex="1">
          <mxGeometry x="470" y="92" width="60" height="30" as="geometry" />
        </mxCell>
        <mxCell id="Y__nK6oGiQVNWSvQ6aT9-4" value="SPORTSTRAINER&amp;nbsp;" style="shape=umlActor;verticalLabelPosition=bottom;verticalAlign=top;html=1;" parent="1" vertex="1">
          <mxGeometry x="850" y="839" width="30" height="60" as="geometry" />
        </mxCell>
        <mxCell id="Y__nK6oGiQVNWSvQ6aT9-6" value="" style="endArrow=none;html=1;rounded=0;" parent="1" edge="1">
          <mxGeometry width="50" height="50" relative="1" as="geometry">
            <mxPoint x="460" y="890" as="sourcePoint" />
            <mxPoint x="850" y="860" as="targetPoint" />
          </mxGeometry>
        </mxCell>
        <mxCell id="nsUnt2v9S5_J_haR1lN8-1" value="Add and Alocate new&lt;br&gt;Resources and facility" style="ellipse;whiteSpace=wrap;html=1;" vertex="1" parent="1">
          <mxGeometry x="580" y="340" width="140" height="70" as="geometry" />
        </mxCell>
        <mxCell id="nsUnt2v9S5_J_haR1lN8-2" value="" style="endArrow=none;html=1;rounded=0;" edge="1" parent="1" source="nsUnt2v9S5_J_haR1lN8-1">
          <mxGeometry width="50" height="50" relative="1" as="geometry">
            <mxPoint x="654" y="293" as="sourcePoint" />
            <mxPoint x="850" y="200" as="targetPoint" />
            <Array as="points">
              <mxPoint x="770" y="260" />
            </Array>
          </mxGeometry>
        </mxCell>
        <mxCell id="nsUnt2v9S5_J_haR1lN8-3" value="MAKE PAYMENTS" style="ellipse;whiteSpace=wrap;html=1;" vertex="1" parent="1">
          <mxGeometry x="300" y="680" width="140" height="70" as="geometry" />
        </mxCell>
        <mxCell id="nsUnt2v9S5_J_haR1lN8-4" value="" style="endArrow=none;html=1;rounded=0;exitX=1;exitY=0.3333333333333333;exitDx=0;exitDy=0;exitPerimeter=0;" edge="1" parent="1" source="UwXpIZZd16UUz_VgwQnS-29">
          <mxGeometry width="50" height="50" relative="1" as="geometry">
            <mxPoint x="162" y="570" as="sourcePoint" />
            <mxPoint x="300" y="710" as="targetPoint" />
          </mxGeometry>
        </mxCell>
        <mxCell id="nsUnt2v9S5_J_haR1lN8-5" value="MAKE PAYMENTS" style="ellipse;whiteSpace=wrap;html=1;" vertex="1" parent="1">
          <mxGeometry x="490" y="680" width="140" height="70" as="geometry" />
        </mxCell>
        <mxCell id="nsUnt2v9S5_J_haR1lN8-7" value="" style="endArrow=none;html=1;rounded=0;entryX=1;entryY=0.5;entryDx=0;entryDy=0;" edge="1" parent="1" target="nsUnt2v9S5_J_haR1lN8-5">
          <mxGeometry width="50" height="50" relative="1" as="geometry">
            <mxPoint x="850" y="600" as="sourcePoint" />
            <mxPoint x="640" y="645" as="targetPoint" />
          </mxGeometry>
        </mxCell>
      </root>
    </mxGraphModel>
  </diagram>
</mxfile>
